<?xml version="1.0" encoding="UTF-8" standalone="no"?>
<!DOCTYPE svg PUBLIC "-//W3C//DTD SVG 1.1//EN" "http://www.w3.org/Graphics/SVG/1.1/DTD/svg11.dtd">
<svg width="100%" height="100%" viewBox="0 0 1565 1099" version="1.1" xmlns="http://www.w3.org/2000/svg" xmlns:xlink="http://www.w3.org/1999/xlink" xml:space="preserve" xmlns:serif="http://www.serif.com/" style="fill-rule:evenodd;clip-rule:evenodd;stroke-linecap:round;stroke-linejoin:round;stroke-miterlimit:1.5;">
    <g transform="matrix(1,0,0,1,-9615.88,-6130.26)">
        <g transform="matrix(1.0851,0,0,1.41964,-782.295,-2324.4)">
            <g id="Dougnut" transform="matrix(0.574631,0,0,0.439216,8350.28,5013.68)">
                <g transform="matrix(1.10542,-0.00590704,0.00590704,1.10542,-429.353,-265.436)">
                    <path d="M3041.33,2357.95C3429.24,2357.95 3744.16,2672.88 3744.16,3060.78C3744.16,3448.69 3429.24,3763.62 3041.33,3763.62C2653.43,3763.62 2338.5,3448.69 2338.5,3060.78C2338.5,2672.88 2653.43,2357.95 3041.33,2357.95ZM3041.33,2821.27C3173.53,2821.27 3280.85,2928.59 3280.85,3060.78C3280.85,3192.98 3173.53,3300.3 3041.33,3300.3C2909.14,3300.3 2801.82,3192.98 2801.82,3060.78C2801.82,2928.59 2909.14,2821.27 3041.33,2821.27Z" style="fill:rgb(255,221,179);"/>
                    <path d="M3041.33,2351.95C2845.19,2350.58 2667,2429.13 2537.48,2556.93C2407.3,2685.39 2326.4,2863.63 2325.15,3060.78C2324.33,3258.74 2403.97,3438.46 2533.4,3568.72C2663.15,3699.29 2842.9,3780.04 3041.33,3780.48C3239.76,3780.01 3419.5,3699.26 3549.22,3568.67C3678.59,3438.41 3758.16,3258.69 3757.28,3060.78C3756.1,2863.67 3675.28,2685.43 3545.15,2556.97C3415.67,2429.14 3237.47,2350.6 3041.33,2351.95L3041.33,2351.95ZM3041.33,2363.95C3233.11,2365.28 3406.3,2444.24 3531.28,2570.84C3655.62,2696.79 3732.2,2869.99 3731.05,3060.78C3730.21,3250.78 3652.26,3422.46 3527.21,3546.66C3402.5,3670.53 3230.81,3747.2 3041.33,3746.75C2851.87,3747.18 2680.18,3670.49 2555.51,3546.61C2430.51,3422.41 2352.64,3250.74 2351.85,3060.78C2350.64,2870.03 2427.14,2696.83 2551.43,2570.88C2676.38,2444.25 2849.57,2365.29 3041.33,2363.95L3041.33,2363.95ZM3041.33,2815.27C2973.04,2813.87 2910.71,2840.56 2865.03,2884.48C2818.68,2929.06 2789.76,2991.48 2788.47,3060.78C2787.62,3130.88 2815.4,3194.76 2860.95,3241.17C2906.81,3287.9 2970.75,3316.7 3041.33,3317.16C3111.91,3316.67 3175.84,3287.87 3221.66,3241.12C3267.16,3194.7 3294.87,3130.84 3293.96,3060.78C3292.74,2991.52 3263.89,2929.1 3217.6,2884.52C3171.96,2840.57 3109.62,2813.89 3041.33,2815.27ZM3041.33,2827.27C3105.26,2828.57 3162.59,2855.66 3203.73,2898.39C3244.23,2940.46 3268.84,2997.84 3267.74,3060.78C3266.93,3122.93 3240.83,3178.75 3199.66,3219.11C3158.84,3259.13 3102.96,3283.86 3041.33,3283.43C2979.72,3283.84 2923.85,3259.1 2883.06,3219.06C2841.94,3178.7 2815.92,3122.89 2815.17,3060.78C2814,2997.88 2838.52,2940.49 2878.98,2898.43C2920.09,2855.68 2977.41,2828.58 3041.33,2827.27Z" style="fill:rgb(255,202,136);"/>
                </g>
                <g transform="matrix(0.96365,0.132626,-0.132728,0.964392,645.691,-135.484)">
                    <path d="M2408.03,2374.12C2507.11,2361.13 2567.73,2260.34 2588.27,2240C2642.7,2186.12 2803.74,2274.38 2847.51,2240C2891.27,2205.63 3111.68,2274.46 3156.31,2335.32C3200.94,2396.18 3396.94,2394.36 3422.52,2606.8C3448.11,2819.24 3553.99,2826.14 3546.68,3093.85C3539.38,3361.57 3389.95,3218.14 3298.21,3479.46C3241.24,3641.74 2999.32,3604.8 2967.95,3681.51C2933.51,3765.75 2718.78,3569.26 2588.27,3681.51C2550.29,3714.17 2460.07,3651.03 2408.03,3519.87C2350.32,3374.39 2302.91,3379.74 2256.26,3392.68C2195.85,3409.44 2012.69,3158.43 2104.85,3038.13C2148.16,2981.59 2100.16,2915.07 2104.85,2856.32C2110.95,2779.88 2161.61,2715.22 2161.43,2688.81C2160.59,2566.68 2289.02,2389.72 2408.03,2374.12Z" style="fill:rgb(244,201,213);"/>
                    <clipPath id="_clip1">
                        <path d="M2408.03,2374.12C2507.11,2361.13 2567.73,2260.34 2588.27,2240C2642.7,2186.12 2803.74,2274.38 2847.51,2240C2891.27,2205.63 3111.68,2274.46 3156.31,2335.32C3200.94,2396.18 3396.94,2394.36 3422.52,2606.8C3448.11,2819.24 3553.99,2826.14 3546.68,3093.85C3539.38,3361.57 3389.95,3218.14 3298.21,3479.46C3241.24,3641.74 2999.32,3604.8 2967.95,3681.51C2933.51,3765.75 2718.78,3569.26 2588.27,3681.51C2550.29,3714.17 2460.07,3651.03 2408.03,3519.87C2350.32,3374.39 2302.91,3379.74 2256.26,3392.68C2195.85,3409.44 2012.69,3158.43 2104.85,3038.13C2148.16,2981.59 2100.16,2915.07 2104.85,2856.32C2110.95,2779.88 2161.61,2715.22 2161.43,2688.81C2160.59,2566.68 2289.02,2389.72 2408.03,2374.12Z"/>
                    </clipPath>
                    <g clip-path="url(#_clip1)">
                        <g id="_-Curve-" serif:id="(Curve)" transform="matrix(1.92702,-0.265008,0.510921,3.70947,3776.34,796.11)">
                            <path d="M-116.67,767C-116.67,767 -1842.08,775.859 -1722.75,766.026C-1627.86,758.207 -1493.77,585.121 -1399,576C-1296.83,566.167 -1166.44,641.937 -1050,626C-930.667,609.667 -767.667,492.333 -683,478C-632.377,469.43 -593.343,540 -542,540C-483.667,540 -403.888,473 -333,478C-262.112,483 -116.67,570 -116.67,570L-116.67,767Z" style="fill:rgb(248,223,230);"/>
                        </g>
                        <g transform="matrix(2.54149,-0.349512,0.365974,2.6571,1658.16,2844.2)">
                            <path d="M272.584,148.474L345.349,245.271L418.113,342.067L127.053,342.067L199.818,245.271L272.584,148.474Z" style="fill:rgb(252,165,173);fill-rule:nonzero;"/>
                            <path d="M189.797,169.076L257.411,255.571L325.025,342.067L54.567,342.067L122.181,255.571L189.797,169.076Z" style="fill:rgb(252,165,173);fill-rule:nonzero;"/>
                            <path d="M271.799,150L288.046,184.241L272.792,170.507L257.536,184.241L257.536,197.976L272.867,218.688L257.687,218.688L250.096,239.233L234.916,232.339L196.966,252.926L212.146,280.388L181.787,294.119L212.146,321.526L189.376,342.067L159.016,342.067L181.787,314.657L143.836,287.219L181.787,273.499L166.606,239.171L212.146,225.44L219.736,218.575L271.799,150Z" style="fill:rgb(148,128,177);fill-rule:nonzero;"/>
                            <g transform="matrix(1.04332,3.19565e-18,-5.01539e-18,1.13705,-11.0956,-13.6554)">
                                <path d="M442.047,99.641L535.011,220.45L627.974,341.259L256.117,341.259L442.047,99.641Z" style="fill:rgb(252,165,173);fill-rule:nonzero;"/>
                            </g>
                            <g transform="matrix(1.02413,4.85044e-18,-7.61248e-18,1.16638,-11.2143,-9.07241)">
                                <path d="M586.457,54.528L685.476,198.298L784.498,342.067L388.413,342.067L487.433,198.298L586.457,54.528Z" style="fill:rgb(252,165,173);fill-rule:nonzero;"/>
                            </g>
                            <g transform="matrix(1,2.06949e-18,-3.24794e-18,1.06069,-0.642666,-2.23223)">
                                <path d="M586.035,57.018L548.951,152.744L515.992,168.459L532.47,199.89L458.312,239.178L466.552,207.748L515.992,192.032L491.271,168.459L586.035,57.018Z" style="fill:rgb(148,128,177);fill-rule:nonzero;"/>
                            </g>
                            <path d="M255.92,341.259L320.302,341.259L320.302,326.206L343.133,264.797L373.64,257.122L373.64,226.417L404.431,241.742L396.842,203.335L427.545,203.335L412.193,187.976L441.947,99.496" style="fill:rgb(148,128,177);fill-rule:nonzero;"/>
                            <path d="M716.996,131.198L789.646,236.633L862.296,342.067L571.691,342.067L644.341,236.633L716.996,131.198Z" style="fill:rgb(252,165,173);fill-rule:nonzero;"/>
                            <path d="M719.826,131.237L711.558,180.38L734.587,218.75L719.236,234.099L726.912,218.743L703.882,195.714L680.855,203.39L696.417,226.417L681.277,241.769L681.277,226.417L650.359,203.389L634.904,226.125L650.15,248.86L665.503,248.86L611.769,256.679L619.447,341.259L542.688,341.259L565.714,256.972L619.447,234.058L642.474,180.438L657.828,180.438L719.826,131.237Z" style="fill:rgb(148,128,177);fill-rule:nonzero;"/>
                            <path d="M314.209,266.588L268.833,273.425L238.564,342.067L294.172,342.067" style="fill:rgb(148,128,177);fill-rule:nonzero;"/>
                            <g transform="matrix(1.16489,0.0207176,-0.0221821,1.24723,-94.1663,-27.9382)">
                                <path d="M585.888,53.569L611.751,90.939L595.587,83.466L590.738,87.618L584.271,77.652L579.423,84.296L575.382,82.635L569.724,84.296L563.257,83.466L585.888,53.569Z" style="fill:white;fill-rule:nonzero;"/>
                            </g>
                            <g transform="matrix(1.16942,0.0560858,-0.0614606,1.28149,-63.5141,-60.2377)">
                                <path d="M401.882,151.557L421.99,139.951L420.381,149.898L430.838,142.437L438.881,141.608L443.708,146.583L448.535,133.318L458.188,139.122L460.6,132.489L471.056,135.806L441.295,98.498L401.882,151.557Z" style="fill:white;fill-rule:nonzero;"/>
                            </g>
                            <g transform="matrix(1.32129,0,0,1.3617,-60.6563,-60.7819)">
                                <path d="M190.168,168.132L209.105,193.046L200.048,189.724L191.814,192.216L187.698,184.742L179.463,187.234L172.876,188.894L190.168,168.132Z" style="fill:white;fill-rule:nonzero;"/>
                            </g>
                            <g transform="matrix(1.22565,0,0,1.24151,-60.9352,-34.507)">
                                <path d="M247.927,179.25L272.257,145.069L289.525,170.791L280.04,165.846L285.301,176.708L272.554,165.24L266.076,171.757L247.927,179.25Z" style="fill:white;fill-rule:nonzero;"/>
                            </g>
                        </g>
                    </g>
                    <path d="M2408.03,2374.12C2507.11,2361.13 2567.73,2260.34 2588.27,2240C2642.7,2186.12 2803.74,2274.38 2847.51,2240C2891.27,2205.63 3111.68,2274.46 3156.31,2335.32C3200.94,2396.18 3396.94,2394.36 3422.52,2606.8C3448.11,2819.24 3553.99,2826.14 3546.68,3093.85C3539.38,3361.57 3389.95,3218.14 3298.21,3479.46C3241.24,3641.74 2999.32,3604.8 2967.95,3681.51C2933.51,3765.75 2718.78,3569.26 2588.27,3681.51C2550.29,3714.17 2460.07,3651.03 2408.03,3519.87C2350.32,3374.39 2302.91,3379.74 2256.26,3392.68C2195.85,3409.44 2012.69,3158.43 2104.85,3038.13C2148.16,2981.59 2100.16,2915.07 2104.85,2856.32C2110.95,2779.88 2161.61,2715.22 2161.43,2688.81C2160.59,2566.68 2289.02,2389.72 2408.03,2374.12Z" style="fill:none;stroke:white;stroke-width:29.8px;"/>
                </g>
                <g transform="matrix(0.949559,0.143604,-0.140379,0.928233,719.331,-54.2607)">
                    <path d="M2405.21,2351.6C2340.61,2360.72 2272.99,2412.72 2222.88,2480.21C2174.35,2545.58 2142.17,2624.66 2143.18,2688.94C2143.28,2695.36 2138.74,2704.44 2133.42,2716.09C2123.33,2738.2 2108.99,2766.58 2099.16,2798.64C2093.7,2816.45 2089.58,2835.34 2088.19,2854.93C2086.58,2877.56 2091.86,2901.23 2097.67,2925.06C2102.6,2945.26 2107.94,2965.58 2107.47,2985.45C2107.11,3000.25 2103.37,3014.77 2092.97,3028.6C2048.58,3087.48 2062.6,3174.72 2099.89,3250.8C2129.95,3312.15 2174.24,3365.89 2209.96,3390.25C2229.14,3403.33 2246.66,3408 2259.36,3404.39C2282.81,3397.72 2306.59,3392.47 2332.24,3414.14C2352.97,3431.64 2374.52,3464.88 2398.36,3523.88C2423.1,3585.22 2456,3631.91 2488.06,3661.43C2529.74,3699.83 2571.01,3708.6 2594.07,3688.57C2625.74,3661.08 2662.83,3653.07 2700.92,3654.78C2781.47,3658.39 2866.44,3703.92 2919.19,3710.22C2946.37,3713.47 2965.86,3706.88 2974.97,3684.51C2983.18,3664.36 3007.7,3653.58 3038.98,3643.76C3093.47,3626.67 3168.18,3614.57 3226.21,3578.43C3261,3556.76 3289.93,3526.64 3305.63,3482.18C3346.38,3367.37 3398.21,3332.85 3443.67,3305.66C3474.62,3287.15 3502.53,3271.49 3523.02,3239.07C3541.53,3209.78 3554.11,3166.57 3556.43,3094.13C3558.5,3030.03 3554.04,2980.63 3545.81,2939.71C3519.65,2809.59 3453.58,2767.1 3435.05,2605.22C3427.07,2534.88 3400.97,2486.78 3367.85,2451.71C3323.7,2404.96 3266.47,2381.83 3221.9,2360.77C3198.57,2349.76 3178.92,2339.92 3168.72,2325.79C3142.75,2289.82 3059.69,2249.65 2982.81,2228.43C2946.8,2218.5 2912.25,2212.66 2885.88,2212.71C2863.8,2212.75 2846.67,2217.53 2836.52,2225.37C2832.93,2228.14 2827.86,2228.89 2822.01,2229.3C2812.2,2229.99 2800.61,2228.71 2787.92,2226.62C2741.38,2218.93 2682.1,2200.37 2636.69,2201.98C2611.2,2202.89 2589.59,2210.08 2574.17,2225.1C2560.53,2238.37 2529,2287.56 2479.99,2321.53C2458.62,2336.34 2433.69,2348.11 2405.21,2351.6L2405.21,2351.6ZM2410.85,2396.64C2446.56,2391.65 2477.78,2376.69 2504.32,2357.62C2555.34,2320.96 2588.24,2269.13 2602.37,2254.91C2611.05,2246.17 2623.84,2243.28 2638.4,2242.51C2681.5,2240.24 2737.98,2257.64 2782.3,2264.18C2815.49,2269.08 2842.99,2267.02 2858.49,2254.64C2865.48,2249.06 2878.78,2248.44 2895.33,2249.04C2926.02,2250.14 2966.11,2258.62 3005.55,2271.17C3065.1,2290.12 3123.64,2317.63 3143.9,2344.84C3156.8,2362.16 3180.42,2375.47 3209.54,2388.7C3251.69,2407.83 3306.14,2428.09 3348.23,2471.39C3378.38,2502.39 3401.97,2545.39 3409.99,2608.38C3430.59,2771.26 3497.44,2813.35 3525.24,2944.16C3533.64,2983.69 3538.32,3031.49 3536.93,3093.57C3535.42,3161.09 3524.8,3201.64 3507.78,3229.09C3489.19,3259.06 3463.18,3273.11 3434.84,3290.34C3387.25,3319.26 3332.8,3355.75 3290.78,3476.73C3276.56,3517.51 3250.06,3545.14 3218.24,3565.08C3161.42,3600.68 3088.02,3612.33 3034.58,3629.07C2998.03,3640.52 2970.59,3654.99 2960.94,3678.51C2951.61,3701.2 2926.88,3697.91 2894.41,3688.97C2841.67,3674.43 2770.2,3641.15 2701.73,3637.51C2659.3,3635.25 2618.02,3644.15 2582.46,3674.44C2574.36,3681.35 2563.22,3682.17 2550.6,3678.55C2535.35,3674.18 2518.25,3663.38 2500.87,3647.03C2470.85,3618.78 2440.44,3574.12 2417.71,3515.85C2392.66,3451.55 2368.96,3415.69 2346.73,3396.42C2314,3368.04 2283.49,3372.77 2253.15,3380.97C2245.3,3383.09 2235.26,3377.91 2223.56,3369.69C2190.8,3346.66 2150.98,3295.91 2124,3238.68C2092.93,3172.75 2077.8,3097.66 2116.73,3047.65C2131.91,3028.19 2137.74,3007.61 2138.61,2986.52C2139.55,2963.85 2134.3,2940.49 2129.07,2917.34C2124.48,2897.02 2119.81,2876.9 2121.51,2857.71C2123,2840.88 2126.89,2824.7 2131.85,2809.46C2143.64,2773.26 2161.57,2742.21 2171.24,2720.02C2176.78,2707.31 2179.67,2696.6 2179.68,2688.68C2179.79,2631.68 2210.63,2562.54 2254.71,2505.43C2298.51,2448.69 2355.61,2403.32 2410.85,2396.64L2410.85,2396.64Z" style="fill:rgb(241,184,172);"/>
                </g>
            </g>
        </g>
        <g transform="matrix(1.0851,0,0,1.41964,-782.295,-2324.4)">
            <g id="Dougnut1" serif:id="Dougnut" transform="matrix(0.574631,0,0,0.439216,8865.62,4947.88)">
                <g transform="matrix(1.10542,-0.00590704,0.00590704,1.10542,-429.353,-265.436)">
                    <path d="M3041.33,2357.95C3429.24,2357.95 3744.16,2672.88 3744.16,3060.78C3744.16,3448.69 3429.24,3763.62 3041.33,3763.62C2653.43,3763.62 2338.5,3448.69 2338.5,3060.78C2338.5,2672.88 2653.43,2357.95 3041.33,2357.95ZM3041.33,2821.27C3173.53,2821.27 3280.85,2928.59 3280.85,3060.78C3280.85,3192.98 3173.53,3300.3 3041.33,3300.3C2909.14,3300.3 2801.82,3192.98 2801.82,3060.78C2801.82,2928.59 2909.14,2821.27 3041.33,2821.27Z" style="fill:rgb(255,221,179);"/>
                    <path d="M3041.33,2351.95C2845.19,2350.58 2667,2429.13 2537.48,2556.93C2407.3,2685.39 2326.4,2863.63 2325.15,3060.78C2324.33,3258.74 2403.97,3438.46 2533.4,3568.72C2663.15,3699.29 2842.9,3780.04 3041.33,3780.48C3239.76,3780.01 3419.5,3699.26 3549.22,3568.67C3678.59,3438.41 3758.16,3258.69 3757.28,3060.78C3756.1,2863.67 3675.28,2685.43 3545.15,2556.97C3415.67,2429.14 3237.47,2350.6 3041.33,2351.95L3041.33,2351.95ZM3041.33,2363.95C3233.11,2365.28 3406.3,2444.24 3531.28,2570.84C3655.62,2696.79 3732.2,2869.99 3731.05,3060.78C3730.21,3250.78 3652.26,3422.46 3527.21,3546.66C3402.5,3670.53 3230.81,3747.2 3041.33,3746.75C2851.87,3747.18 2680.18,3670.49 2555.51,3546.61C2430.51,3422.41 2352.64,3250.74 2351.85,3060.78C2350.64,2870.03 2427.14,2696.83 2551.43,2570.88C2676.38,2444.25 2849.57,2365.29 3041.33,2363.95L3041.33,2363.95ZM3041.33,2815.27C2973.04,2813.87 2910.71,2840.56 2865.03,2884.48C2818.68,2929.06 2789.76,2991.48 2788.47,3060.78C2787.62,3130.88 2815.4,3194.76 2860.95,3241.17C2906.81,3287.9 2970.75,3316.7 3041.33,3317.16C3111.91,3316.67 3175.84,3287.87 3221.66,3241.12C3267.16,3194.7 3294.87,3130.84 3293.96,3060.78C3292.74,2991.52 3263.89,2929.1 3217.6,2884.52C3171.96,2840.57 3109.62,2813.89 3041.33,2815.27L3041.33,2815.27ZM3041.33,2827.27C3105.26,2828.57 3162.59,2855.66 3203.73,2898.39C3244.23,2940.46 3268.84,2997.84 3267.74,3060.78C3266.93,3122.93 3240.83,3178.75 3199.66,3219.11C3158.84,3259.13 3102.96,3283.86 3041.33,3283.43C2979.72,3283.84 2923.85,3259.1 2883.06,3219.06C2841.94,3178.7 2815.92,3122.89 2815.17,3060.78C2814,2997.88 2838.52,2940.49 2878.98,2898.43C2920.09,2855.68 2977.41,2828.58 3041.33,2827.27L3041.33,2827.27Z" style="fill:rgb(255,202,136);"/>
                </g>
                <g transform="matrix(0.96365,0.132626,-0.132728,0.964392,645.691,-135.484)">
                    <path d="M2408.03,2374.12C2507.11,2361.13 2567.73,2260.34 2588.27,2240C2642.7,2186.12 2803.74,2274.38 2847.51,2240C2891.27,2205.63 3111.68,2274.46 3156.31,2335.32C3200.94,2396.18 3396.94,2394.36 3422.52,2606.8C3448.11,2819.24 3553.99,2826.14 3546.68,3093.85C3539.38,3361.57 3389.95,3218.14 3298.21,3479.46C3241.24,3641.74 2999.32,3604.8 2967.95,3681.51C2933.51,3765.75 2718.78,3569.26 2588.27,3681.51C2550.29,3714.17 2460.07,3651.03 2408.03,3519.87C2350.32,3374.39 2302.91,3379.74 2256.26,3392.68C2195.85,3409.44 2012.69,3158.43 2104.85,3038.13C2148.16,2981.59 2100.16,2915.07 2104.85,2856.32C2110.95,2779.88 2161.61,2715.22 2161.43,2688.81C2160.59,2566.68 2289.02,2389.72 2408.03,2374.12Z" style="fill:rgb(237,246,246);"/>
                    <clipPath id="_clip2">
                        <path d="M2408.03,2374.12C2507.11,2361.13 2567.73,2260.34 2588.27,2240C2642.7,2186.12 2803.74,2274.38 2847.51,2240C2891.27,2205.63 3111.68,2274.46 3156.31,2335.32C3200.94,2396.18 3396.94,2394.36 3422.52,2606.8C3448.11,2819.24 3553.99,2826.14 3546.68,3093.85C3539.38,3361.57 3389.95,3218.14 3298.21,3479.46C3241.24,3641.74 2999.32,3604.8 2967.95,3681.51C2933.51,3765.75 2718.78,3569.26 2588.27,3681.51C2550.29,3714.17 2460.07,3651.03 2408.03,3519.87C2350.32,3374.39 2302.91,3379.74 2256.26,3392.68C2195.85,3409.44 2012.69,3158.43 2104.85,3038.13C2148.16,2981.59 2100.16,2915.07 2104.85,2856.32C2110.95,2779.88 2161.61,2715.22 2161.43,2688.81C2160.59,2566.68 2289.02,2389.72 2408.03,2374.12Z"/>
                    </clipPath>
                    <g clip-path="url(#_clip2)">
                        <g transform="matrix(1.17071,-0.160999,0.133034,0.965873,-9489.6,57.9649)">
                            <rect x="9400" y="4943" width="1368.76" height="616" style="fill:rgb(179,207,174);"/>
                        </g>
                        <g transform="matrix(2.04523,-0.281266,0.281482,2.04366,1111.6,2811.33)">
                            <rect x="561.969" y="255.18" width="15.046" height="138.598" style="fill:rgb(179,207,174);"/>
                            <path d="M508.653,313.684L569.316,208.205L629.971,313.684L508.653,313.684Z" style="fill:rgb(179,207,174);fill-rule:nonzero;"/>
                            <path d="M502.491,355.279L569.166,239.344L635.837,355.279L502.491,355.279Z" style="fill:rgb(179,207,174);fill-rule:nonzero;"/>
                            <path d="M569.392,207.178L629.537,313.912L569.216,313.912" style="fill:rgb(179,207,174);fill-rule:nonzero;"/>
                            <path d="M568.609,235.807L639.448,355.324L568.403,355.324" style="fill:rgb(179,207,174);fill-rule:nonzero;"/>
                            <path d="M530.71,274.826L606.744,272.885L614.907,288.012L530.71,274.826Z" style="fill:rgb(179,207,174);fill-opacity:0.6;fill-rule:nonzero;"/>
                            <path d="M516.894,274.73L569.313,183.193L621.733,274.73L516.894,274.73Z" style="fill:rgb(179,207,174);fill-rule:nonzero;"/>
                            <path d="M569.316,183.348L621.733,274.691L569.163,274.691" style="fill:rgb(179,207,174);fill-rule:nonzero;"/>
                            <path d="M525.424,314.133L614.717,313.627L624.482,330.291L525.424,314.133Z" style="fill:rgb(179,207,174);fill-opacity:0.6;fill-rule:nonzero;"/>
                        </g>
                        <g transform="matrix(2.04523,-0.281266,0.281482,2.04366,1343.63,2730.41)">
                            <rect x="561.969" y="255.18" width="15.046" height="138.598" style="fill:rgb(179,207,174);"/>
                            <path d="M508.653,313.684L569.316,208.205L629.971,313.684L508.653,313.684Z" style="fill:rgb(179,207,174);fill-rule:nonzero;"/>
                            <path d="M502.491,355.279L569.166,239.344L635.837,355.279L502.491,355.279Z" style="fill:rgb(179,207,174);fill-rule:nonzero;"/>
                            <path d="M569.392,207.178L629.537,313.912L569.216,313.912" style="fill:rgb(179,207,174);fill-rule:nonzero;"/>
                            <path d="M568.609,235.807L639.448,355.324L568.403,355.324" style="fill:rgb(179,207,174);fill-rule:nonzero;"/>
                            <path d="M530.71,274.826L606.744,272.885L614.907,288.012L530.71,274.826Z" style="fill:rgb(179,207,174);fill-opacity:0.6;fill-rule:nonzero;"/>
                            <path d="M516.894,274.73L569.313,183.193L621.733,274.73L516.894,274.73Z" style="fill:rgb(179,207,174);fill-rule:nonzero;"/>
                            <path d="M569.316,183.348L621.733,274.691L569.163,274.691" style="fill:rgb(179,207,174);fill-rule:nonzero;"/>
                            <path d="M525.424,314.133L614.717,313.627L624.482,330.291L525.424,314.133Z" style="fill:rgb(179,207,174);fill-opacity:0.6;fill-rule:nonzero;"/>
                        </g>
                        <g transform="matrix(-2.04523,0.281266,0.281482,2.04366,4354.91,2316.1)">
                            <rect x="561.969" y="255.18" width="15.046" height="138.598" style="fill:rgb(179,207,174);"/>
                            <path d="M508.653,313.684L569.316,208.205L629.971,313.684L508.653,313.684Z" style="fill:rgb(179,207,174);fill-rule:nonzero;"/>
                            <path d="M502.491,355.279L569.166,239.344L635.837,355.279L502.491,355.279Z" style="fill:rgb(179,207,174);fill-rule:nonzero;"/>
                            <path d="M569.392,207.178L629.537,313.912L569.216,313.912" style="fill:rgb(179,207,174);fill-rule:nonzero;"/>
                            <path d="M568.609,235.807L639.448,355.324L568.403,355.324" style="fill:rgb(179,207,174);fill-rule:nonzero;"/>
                            <path d="M530.71,274.826L606.744,272.885L614.907,288.012L530.71,274.826Z" style="fill:rgb(179,207,174);fill-opacity:0.6;fill-rule:nonzero;"/>
                            <path d="M516.894,274.73L569.313,183.193L621.733,274.73L516.894,274.73Z" style="fill:rgb(179,207,174);fill-rule:nonzero;"/>
                            <path d="M569.316,183.348L621.733,274.691L569.163,274.691" style="fill:rgb(179,207,174);fill-rule:nonzero;"/>
                            <path d="M525.424,314.133L614.717,313.627L624.482,330.291L525.424,314.133Z" style="fill:rgb(179,207,174);fill-opacity:0.6;fill-rule:nonzero;"/>
                        </g>
                        <g transform="matrix(-2.04523,0.281266,0.281482,2.04366,4138.51,2346.05)">
                            <rect x="561.969" y="255.18" width="15.046" height="138.598" style="fill:rgb(179,207,174);"/>
                            <path d="M508.653,313.684L569.316,208.205L629.971,313.684L508.653,313.684Z" style="fill:rgb(179,207,174);fill-rule:nonzero;"/>
                            <path d="M502.491,355.279L569.166,239.344L635.837,355.279L502.491,355.279Z" style="fill:rgb(179,207,174);fill-rule:nonzero;"/>
                            <path d="M569.392,207.178L629.537,313.912L569.216,313.912" style="fill:rgb(179,207,174);fill-rule:nonzero;"/>
                            <path d="M568.609,235.807L639.448,355.324L568.403,355.324" style="fill:rgb(179,207,174);fill-rule:nonzero;"/>
                            <path d="M530.71,274.826L606.744,272.885L614.907,288.012L530.71,274.826Z" style="fill:rgb(179,207,174);fill-opacity:0.6;fill-rule:nonzero;"/>
                            <path d="M516.894,274.73L569.313,183.193L621.733,274.73L516.894,274.73Z" style="fill:rgb(179,207,174);fill-rule:nonzero;"/>
                            <path d="M569.316,183.348L621.733,274.691L569.163,274.691" style="fill:rgb(179,207,174);fill-rule:nonzero;"/>
                            <path d="M525.424,314.133L614.717,313.627L624.482,330.291L525.424,314.133Z" style="fill:rgb(179,207,174);fill-opacity:0.6;fill-rule:nonzero;"/>
                        </g>
                        <g transform="matrix(2.62148,-0.360512,0.36079,2.61946,1803.14,2587.48)">
                            <rect x="340.196" y="209.996" width="21.349" height="196.641" style="fill:rgb(140,81,86);"/>
                            <path d="M264.553,293.002L350.618,143.352L436.681,293.002L264.553,293.002Z" style="fill:rgb(88,138,110);fill-rule:nonzero;"/>
                            <path d="M255.809,352.014L350.409,187.527L445.001,352.014L255.809,352.014Z" style="fill:rgb(88,138,110);fill-rule:nonzero;"/>
                            <path d="M350.728,141.894L436.064,293.326L350.478,293.326" style="fill:rgb(84,118,90);fill-rule:nonzero;"/>
                            <path d="M349.621,182.512L450.125,352.082L349.327,352.082" style="fill:rgb(84,118,90);fill-rule:nonzero;"/>
                            <path d="M295.845,237.869L403.724,235.115L415.304,256.58L295.845,237.869Z" style="fill:rgb(75,81,85);fill-opacity:0.6;fill-rule:nonzero;"/>
                            <path d="M276.246,237.734L350.616,107.864L424.987,237.734L276.246,237.734Z" style="fill:rgb(88,138,110);fill-rule:nonzero;"/>
                            <path d="M350.621,108.083L424.991,237.682L350.403,237.682" style="fill:rgb(84,118,90);fill-rule:nonzero;"/>
                            <path d="M288.35,293.639L415.036,292.92L428.888,316.562L288.35,293.639Z" style="fill:rgb(75,81,85);fill-opacity:0.6;fill-rule:nonzero;"/>
                        </g>
                        <g transform="matrix(2.61969,-0.360266,0.384506,2.79165,-23019,-6686.22)">
                            <path d="M9317.83,4497.19C9319.41,4486.23 9328.84,4477.8 9340.25,4477.8C9347.57,4477.8 9354.08,4481.27 9358.22,4486.65L9358.25,4486.7C9361.18,4490.51 9362.92,4495.27 9362.92,4500.45C9362.92,4502.58 9362.63,4504.65 9362.08,4506.6L9362.08,4506.6L9362.08,4506.6C9367.06,4507.47 9371.47,4509.97 9374.74,4513.53C9371.02,4517.19 9368.7,4522.3 9368.7,4527.94C9368.7,4531.77 9369.77,4535.35 9371.61,4538.4C9370.66,4538.5 9369.69,4538.56 9368.7,4538.56L9368.7,4538.56C9369.69,4538.56 9370.66,4538.5 9371.61,4538.4L9371.61,4538.4L9371.61,4538.4C9369.77,4535.35 9368.7,4531.77 9368.7,4527.94C9368.7,4522.3 9371.02,4517.19 9374.74,4513.53L9374.74,4513.53L9374.74,4513.53L9374.74,4513.53C9371.47,4509.97 9367.05,4507.47 9362.08,4506.6C9362.63,4504.65 9362.92,4502.58 9362.92,4500.45C9362.92,4495.25 9361.17,4490.47 9358.22,4486.65C9361.44,4485.29 9364.99,4484.54 9368.7,4484.54C9374.11,4484.54 9379.13,4486.13 9383.36,4488.87C9379.09,4492.85 9376.41,4498.52 9376.41,4504.79L9376.41,4504.76C9376.42,4498.49 9379.1,4492.84 9383.36,4488.87L9383.36,4488.87C9387.24,4485.29 9392.41,4483.1 9398.11,4483.1C9408.05,4483.1 9416.41,4489.76 9418.99,4498.86L9419.03,4498.85C9420.65,4498.34 9422.37,4498.05 9424.15,4498.05C9433.48,4498.05 9441.03,4505.6 9441.03,4514.92C9441.03,4523.38 9434.83,4530.38 9426.71,4531.61C9426.93,4530.59 9427.05,4529.53 9427.05,4528.43C9427.05,4522.04 9423.18,4516.57 9417.66,4514.23C9419.04,4511.39 9419.81,4508.2 9419.81,4504.83L9419.81,4504.79C9419.81,4508.18 9419.05,4511.38 9417.66,4514.23C9415.81,4513.43 9413.76,4513 9411.62,4513C9410.13,4513 9408.7,4513.2 9407.34,4513.6L9407.34,4513.6L9407.34,4513.61C9407.3,4514.04 9407.28,4514.47 9407.28,4514.92L9407.28,4514.92C9407.28,4514.47 9407.3,4514.04 9407.34,4513.6C9408.7,4513.2 9410.13,4513 9411.62,4513C9413.76,4513 9415.81,4513.43 9417.66,4514.23C9415.86,4517.96 9413.01,4521.1 9409.5,4523.27L9409.5,4523.27C9409.25,4523.43 9409.01,4523.57 9408.76,4523.7L9408.78,4523.69C9409.02,4523.56 9409.26,4523.42 9409.5,4523.27L9409.54,4523.24C9413.03,4521.07 9415.87,4517.94 9417.66,4514.23C9423.18,4516.57 9427.05,4522.04 9427.05,4528.43C9427.05,4529.53 9426.93,4530.59 9426.71,4531.61L9426.7,4531.65C9425.23,4538.62 9419.05,4543.85 9411.62,4543.85C9408.76,4543.85 9406.07,4543.07 9403.78,4541.71C9407.15,4538.11 9409.21,4533.26 9409.21,4527.94L9409.21,4528C9409.19,4533.28 9407.16,4538.09 9403.82,4541.67L9403.78,4541.71C9400.11,4545.69 9394.81,4548.19 9388.95,4548.19C9383.88,4548.19 9379.22,4546.31 9375.66,4543.2L9375.66,4543.2L9375.66,4543.2C9371.52,4548.31 9365.19,4551.56 9358.1,4551.56C9351.75,4551.56 9346.02,4548.96 9341.93,4544.76L9341.93,4544.76C9336.73,4550.43 9329.25,4553.98 9320.97,4553.98C9305.26,4553.98 9292.51,4541.25 9292.51,4525.54C9292.51,4510.87 9303.59,4498.82 9317.83,4497.26L9317.83,4497.19ZM9380.75,4528.97C9380.75,4531.54 9380.31,4534.01 9379.51,4536.3C9380.32,4533.99 9380.75,4531.5 9380.75,4528.91L9380.75,4528.97ZM9335.43,4528.91C9335.43,4530.45 9335.59,4531.96 9335.88,4533.41C9335.59,4531.96 9335.43,4530.45 9335.43,4528.91L9335.43,4528.91ZM9345.72,4522.45C9345.2,4522.58 9344.67,4522.69 9344.14,4522.78C9345.37,4525.48 9347.03,4527.94 9349.06,4530.07C9347.05,4527.96 9345.39,4525.52 9344.17,4522.84L9344.14,4522.78C9344.67,4522.69 9345.2,4522.58 9345.72,4522.45ZM9409.21,4527.67L9409.21,4527.73C9409.21,4527.71 9409.21,4527.69 9409.21,4527.67ZM9409.2,4527.5L9409.2,4527.53C9409.2,4527.55 9409.2,4527.57 9409.2,4527.59C9409.2,4527.56 9409.2,4527.53 9409.2,4527.5ZM9396.32,4526.41L9396.32,4526.41C9396.91,4526.46 9397.51,4526.49 9398.11,4526.49L9398.11,4526.49C9397.51,4526.49 9396.91,4526.47 9396.32,4526.41L9396.32,4526.41ZM9409.13,4526.2C9409.14,4526.25 9409.14,4526.3 9409.15,4526.35L9409.15,4526.38C9409.14,4526.32 9409.14,4526.26 9409.13,4526.2ZM9396.4,4525.85C9396.38,4525.99 9396.36,4526.14 9396.34,4526.28C9396.36,4526.14 9396.38,4525.99 9396.4,4525.85ZM9409.12,4526.08L9409.13,4526.15C9409.13,4526.13 9409.12,4526.1 9409.12,4526.08ZM9409.11,4525.91L9409.11,4525.98L9409.12,4526.02C9409.11,4525.98 9409.11,4525.95 9409.11,4525.91ZM9396.48,4525.42C9396.46,4525.53 9396.44,4525.65 9396.42,4525.78C9396.44,4525.66 9396.46,4525.54 9396.48,4525.42ZM9409.05,4525.42C9409.06,4525.5 9409.07,4525.59 9409.08,4525.68C9409.07,4525.59 9409.06,4525.5 9409.05,4525.42ZM9396.55,4525.1L9396.56,4525.07C9396.53,4525.17 9396.51,4525.28 9396.49,4525.38C9396.51,4525.29 9396.53,4525.19 9396.55,4525.1ZM9409.03,4525.31C9409.03,4525.29 9409.03,4525.27 9409.03,4525.25L9409.03,4525.31ZM9396.62,4524.81C9396.61,4524.83 9396.61,4524.85 9396.6,4524.87L9396.61,4524.84C9396.61,4524.82 9396.62,4524.8 9396.62,4524.78L9396.62,4524.81ZM9408.93,4524.6L9408.94,4524.63C9408.94,4524.65 9408.94,4524.67 9408.94,4524.69C9408.94,4524.66 9408.93,4524.63 9408.93,4524.6ZM9396.75,4524.31C9396.72,4524.4 9396.7,4524.48 9396.68,4524.57C9396.7,4524.48 9396.72,4524.4 9396.75,4524.31ZM9396.79,4524.16C9396.77,4524.2 9396.76,4524.24 9396.75,4524.29C9396.76,4524.26 9396.77,4524.22 9396.78,4524.19L9396.79,4524.16ZM9396.84,4523.98C9396.83,4524.03 9396.81,4524.08 9396.8,4524.14L9396.8,4524.11C9396.82,4524.07 9396.83,4524.02 9396.84,4523.98ZM9408.82,4523.99C9408.82,4524 9408.82,4524.02 9408.83,4524.03C9408.82,4524.01 9408.82,4523.98 9408.81,4523.96L9408.82,4523.99ZM9396.88,4523.86C9396.87,4523.89 9396.86,4523.91 9396.85,4523.94C9396.86,4523.92 9396.86,4523.9 9396.87,4523.89L9396.88,4523.86ZM9396.91,4523.77L9396.89,4523.83L9396.91,4523.77ZM9396.98,4523.55L9396.99,4523.53C9396.96,4523.6 9396.94,4523.67 9396.91,4523.75L9396.92,4523.72C9396.94,4523.66 9396.96,4523.61 9396.98,4523.55ZM9408.7,4523.43C9408.71,4523.48 9408.72,4523.53 9408.73,4523.58L9408.74,4523.62C9408.73,4523.57 9408.72,4523.52 9408.71,4523.47L9408.7,4523.43ZM9397.06,4523.31C9397.05,4523.34 9397.04,4523.37 9397.03,4523.4C9397.04,4523.37 9397.05,4523.34 9397.06,4523.31ZM9408.67,4523.31L9408.68,4523.35L9408.69,4523.39C9408.68,4523.36 9408.68,4523.34 9408.67,4523.31ZM9397.28,4522.71C9397.21,4522.9 9397.14,4523.08 9397.07,4523.27C9397.14,4523.09 9397.2,4522.92 9397.27,4522.74L9397.28,4522.71ZM9340.25,4523.12L9340.25,4523.12L9340.25,4523.12ZM9408.58,4522.92L9408.59,4522.96L9408.58,4522.92L9408.57,4522.89L9408.58,4522.92ZM9408.54,4522.77L9408.55,4522.81L9408.56,4522.85C9408.55,4522.82 9408.55,4522.8 9408.54,4522.77ZM9317.59,4500.45C9317.59,4511.61 9325.65,4520.9 9336.27,4522.78L9336.27,4522.78L9336.27,4522.78L9336.27,4522.78C9325.65,4520.9 9317.59,4511.61 9317.59,4500.45L9317.59,4500.45ZM9397.32,4522.63C9397.31,4522.65 9397.3,4522.67 9397.3,4522.69L9397.32,4522.63ZM9408.47,4522.51C9408.48,4522.53 9408.48,4522.56 9408.49,4522.58L9408.5,4522.62C9408.49,4522.58 9408.48,4522.55 9408.47,4522.51ZM9397.33,4522.61L9397.35,4522.55C9397.34,4522.57 9397.34,4522.59 9397.33,4522.61ZM9397.4,4522.44L9397.42,4522.39C9397.41,4522.41 9397.4,4522.42 9397.4,4522.44ZM9408.43,4522.37L9408.44,4522.4L9408.43,4522.37ZM9397.47,4522.26L9397.48,4522.24C9397.47,4522.28 9397.45,4522.32 9397.43,4522.37L9397.44,4522.34C9397.45,4522.32 9397.46,4522.29 9397.47,4522.26ZM9397.52,4522.16C9397.51,4522.18 9397.5,4522.19 9397.5,4522.21L9397.52,4522.16ZM9397.59,4521.99L9397.61,4521.95C9397.61,4521.96 9397.6,4521.98 9397.59,4521.99ZM9397.9,4521.36C9397.85,4521.46 9397.8,4521.57 9397.74,4521.68C9397.8,4521.57 9397.85,4521.46 9397.9,4521.36ZM9408.17,4521.52L9408.15,4521.48C9408.16,4521.5 9408.17,4521.53 9408.18,4521.55L9408.19,4521.59C9408.18,4521.57 9408.17,4521.54 9408.17,4521.52ZM9358.1,4506.24C9353.23,4506.24 9348.73,4507.77 9345.04,4510.38C9347.11,4513.63 9348.52,4517.35 9349.1,4521.33L9349.1,4521.33L9349.1,4521.33C9348.91,4521.41 9348.72,4521.49 9348.52,4521.57C9348.72,4521.49 9348.91,4521.41 9349.1,4521.33C9348.52,4517.35 9347.1,4513.63 9345.04,4510.38C9344.28,4510.91 9343.56,4511.5 9342.87,4512.12C9343.56,4511.5 9344.28,4510.91 9345.04,4510.38L9345.08,4510.35C9348.76,4507.76 9353.24,4506.24 9358.1,4506.24L9358.1,4506.24ZM9408.06,4521.22L9408.07,4521.25C9408.07,4521.23 9408.06,4521.2 9408.05,4521.18L9408.06,4521.22ZM9398.09,4521.02C9398.06,4521.06 9398.04,4521.1 9398.02,4521.14C9398.04,4521.1 9398.06,4521.06 9398.09,4521.02ZM9408.01,4521.07L9408.03,4521.13C9408.02,4521.11 9408.02,4521.09 9408.01,4521.07ZM9407.9,4520.77L9407.89,4520.74C9407.9,4520.77 9407.92,4520.81 9407.93,4520.85L9407.94,4520.89C9407.93,4520.85 9407.92,4520.81 9407.9,4520.77ZM9398.55,4520.22L9398.57,4520.19C9398.43,4520.41 9398.3,4520.63 9398.18,4520.85C9398.3,4520.64 9398.42,4520.43 9398.55,4520.22ZM9407.73,4520.34C9407.78,4520.45 9407.82,4520.57 9407.87,4520.69C9407.82,4520.56 9407.77,4520.43 9407.72,4520.3L9407.73,4520.34ZM9407.63,4520.09C9407.65,4520.14 9407.67,4520.19 9407.69,4520.24C9407.67,4520.19 9407.65,4520.14 9407.63,4520.09ZM9395.57,4508.8C9393.5,4508.08 9391.27,4507.69 9388.96,4507.69C9384.68,4507.69 9380.7,4509.02 9377.41,4511.32C9378.47,4514.69 9380.33,4517.7 9382.76,4520.13C9380.33,4517.7 9378.47,4514.69 9377.41,4511.32L9377.45,4511.29C9380.73,4509.01 9384.69,4507.69 9388.96,4507.69C9391.27,4507.69 9393.5,4508.08 9395.57,4508.8ZM9407.58,4519.97L9407.6,4520.03L9407.58,4519.97ZM9398.83,4519.79C9398.82,4519.81 9398.81,4519.83 9398.79,4519.85C9398.8,4519.84 9398.81,4519.83 9398.82,4519.81L9398.83,4519.79ZM9407.42,4519.61C9407.45,4519.67 9407.48,4519.73 9407.5,4519.79L9407.52,4519.83C9407.49,4519.76 9407.45,4519.69 9407.42,4519.61ZM9398.98,4519.58C9398.97,4519.6 9398.96,4519.61 9398.95,4519.63L9398.98,4519.58ZM9407.29,4519.34C9407.32,4519.39 9407.35,4519.45 9407.37,4519.51L9407.39,4519.54C9407.36,4519.47 9407.33,4519.4 9407.29,4519.34ZM9399.14,4519.35L9399.11,4519.39L9399.14,4519.35ZM9407.24,4519.23C9407.26,4519.26 9407.27,4519.29 9407.28,4519.32C9407.26,4519.28 9407.24,4519.23 9407.22,4519.19L9407.24,4519.23ZM9407.09,4518.91L9407.1,4518.94C9407.14,4519.01 9407.17,4519.08 9407.2,4519.14C9407.16,4519.07 9407.12,4518.99 9407.09,4518.91ZM9399.35,4519.08L9399.36,4519.05C9399.34,4519.08 9399.32,4519.11 9399.3,4519.14C9399.32,4519.11 9399.33,4519.1 9399.35,4519.08ZM9341.75,4513.21C9340.13,4514.89 9338.77,4516.82 9337.74,4518.94C9338.77,4516.82 9340.13,4514.89 9341.75,4513.21ZM9399.52,4518.85C9399.52,4518.86 9399.51,4518.87 9399.5,4518.88L9399.52,4518.85ZM9399.56,4518.81L9399.59,4518.76L9399.56,4518.81ZM9406.93,4518.6C9406.96,4518.65 9406.98,4518.71 9407.01,4518.76C9406.98,4518.7 9406.94,4518.63 9406.91,4518.56L9406.93,4518.6ZM9399.63,4518.72L9399.65,4518.69C9399.64,4518.7 9399.64,4518.71 9399.63,4518.72ZM9406.78,4518.32C9406.82,4518.39 9406.86,4518.47 9406.9,4518.54C9406.86,4518.47 9406.82,4518.39 9406.78,4518.32ZM9399.84,4518.46C9399.83,4518.48 9399.81,4518.5 9399.8,4518.52C9399.81,4518.5 9399.82,4518.49 9399.83,4518.48L9399.84,4518.46ZM9399.97,4518.31C9399.94,4518.35 9399.9,4518.39 9399.86,4518.44L9399.88,4518.41C9399.91,4518.38 9399.94,4518.34 9399.97,4518.31ZM9400.14,4518.12C9400.09,4518.18 9400.03,4518.24 9399.98,4518.3C9400.03,4518.24 9400.09,4518.18 9400.14,4518.12ZM9406.67,4518.11L9406.7,4518.17C9406.69,4518.15 9406.68,4518.13 9406.67,4518.11ZM9400.26,4517.99C9400.23,4518.02 9400.2,4518.06 9400.17,4518.09C9400.19,4518.06 9400.21,4518.04 9400.24,4518.01L9400.26,4517.99ZM9406.5,4517.81L9406.51,4517.84C9406.54,4517.89 9406.57,4517.93 9406.59,4517.98L9406.61,4518.01C9406.57,4517.95 9406.53,4517.88 9406.5,4517.81ZM9400.35,4517.89C9400.34,4517.9 9400.33,4517.91 9400.31,4517.93L9400.33,4517.91C9400.35,4517.89 9400.36,4517.88 9400.37,4517.87L9400.35,4517.89ZM9400.59,4517.64C9400.52,4517.71 9400.46,4517.77 9400.4,4517.84C9400.46,4517.77 9400.52,4517.71 9400.59,4517.64ZM9406.28,4517.44L9406.26,4517.41C9406.32,4517.52 9406.39,4517.63 9406.45,4517.74L9406.48,4517.78C9406.41,4517.66 9406.34,4517.55 9406.28,4517.44ZM9400.69,4517.54C9400.67,4517.55 9400.66,4517.57 9400.65,4517.58L9400.69,4517.54ZM9400.83,4517.4C9400.79,4517.44 9400.76,4517.47 9400.72,4517.51C9400.75,4517.48 9400.78,4517.45 9400.81,4517.42L9400.83,4517.4ZM9401.05,4517.19L9401.07,4517.17C9401.02,4517.21 9400.98,4517.26 9400.93,4517.3C9400.97,4517.26 9401.01,4517.22 9401.05,4517.19ZM9405.99,4516.98L9406.02,4517.03C9406.01,4517.02 9406,4517 9405.99,4516.98ZM9405.9,4516.85C9405.92,4516.87 9405.93,4516.9 9405.94,4516.92L9405.97,4516.95C9405.94,4516.91 9405.91,4516.86 9405.88,4516.82L9405.9,4516.85ZM9401.46,4516.82L9401.45,4516.83L9401.46,4516.82ZM9402.01,4516.35C9401.98,4516.38 9401.95,4516.4 9401.92,4516.43C9401.94,4516.41 9401.97,4516.39 9401.99,4516.37L9402.01,4516.35ZM9405.51,4516.28L9405.54,4516.32L9405.51,4516.28ZM9405.43,4516.16L9405.45,4516.19L9405.43,4516.16ZM9402.45,4516.01L9402.49,4515.99C9402.48,4516 9402.47,4516.01 9402.45,4516.01ZM9402.77,4515.78C9402.76,4515.79 9402.75,4515.8 9402.74,4515.81C9402.75,4515.8 9402.76,4515.79 9402.77,4515.78ZM9405.1,4515.72L9405.14,4515.77L9405.1,4515.72ZM9402.88,4515.71C9402.87,4515.72 9402.85,4515.73 9402.84,4515.74L9402.88,4515.71ZM9404.91,4515.47C9404.96,4515.54 9405.01,4515.6 9405.06,4515.67C9405.01,4515.6 9404.96,4515.54 9404.91,4515.47ZM9403.14,4515.53C9403.12,4515.54 9403.11,4515.55 9403.1,4515.56L9403.14,4515.53ZM9403.33,4515.41C9403.31,4515.43 9403.28,4515.44 9403.26,4515.46L9403.28,4515.44C9403.3,4515.43 9403.31,4515.42 9403.33,4515.41ZM9403.45,4515.33C9403.42,4515.35 9403.39,4515.37 9403.36,4515.39C9403.38,4515.38 9403.4,4515.36 9403.43,4515.35L9403.45,4515.33ZM9404.81,4515.34C9404.82,4515.35 9404.82,4515.36 9404.83,4515.37C9404.82,4515.36 9404.82,4515.35 9404.81,4515.34ZM9403.5,4515.3L9403.55,4515.27C9403.53,4515.28 9403.51,4515.29 9403.5,4515.3ZM9403.84,4515.1L9403.86,4515.08C9403.82,4515.11 9403.77,4515.14 9403.72,4515.17C9403.76,4515.14 9403.8,4515.12 9403.84,4515.1ZM9404.62,4515.11L9404.64,4515.14L9404.62,4515.11ZM9404.44,4514.89C9404.45,4514.91 9404.46,4514.92 9404.47,4514.94C9404.45,4514.91 9404.43,4514.89 9404.41,4514.86L9404.44,4514.89ZM9342.17,4506.56C9341.85,4508.18 9341.69,4509.84 9341.69,4511.55L9341.69,4511.51C9341.7,4509.82 9341.86,4508.17 9342.17,4506.56L9342.17,4506.56ZM9377.29,4510.93L9377.31,4510.98L9377.29,4510.93ZM9376.96,4509.65L9376.96,4509.67L9376.96,4509.65ZM9376.87,4509.25L9376.86,4509.2C9376.88,4509.28 9376.89,4509.35 9376.91,4509.43C9376.9,4509.37 9376.88,4509.31 9376.87,4509.25ZM9376.71,4508.37L9376.7,4508.34L9376.69,4508.29C9376.7,4508.32 9376.7,4508.34 9376.71,4508.37ZM9376.64,4507.93L9376.63,4507.88C9376.64,4507.95 9376.65,4508.01 9376.66,4508.08C9376.65,4508.03 9376.65,4507.98 9376.64,4507.93ZM9376.59,4507.57C9376.6,4507.65 9376.61,4507.72 9376.62,4507.8C9376.61,4507.74 9376.6,4507.68 9376.6,4507.62L9376.59,4507.57ZM9376.52,4506.95C9376.53,4507.05 9376.54,4507.15 9376.55,4507.25C9376.54,4507.15 9376.53,4507.05 9376.52,4506.95ZM9376.5,4506.74C9376.5,4506.76 9376.5,4506.78 9376.51,4506.8L9376.51,4506.85L9376.51,4506.88L9376.51,4506.85L9376.51,4506.8C9376.5,4506.78 9376.5,4506.76 9376.5,4506.74ZM9376.45,4506.06C9376.45,4506.15 9376.46,4506.23 9376.47,4506.32C9376.46,4506.23 9376.45,4506.15 9376.45,4506.06ZM9376.44,4505.89C9376.44,4505.93 9376.44,4505.97 9376.45,4506.01L9376.44,4505.96C9376.44,4505.94 9376.44,4505.91 9376.44,4505.89ZM9376.43,4505.59L9376.43,4505.54L9376.42,4505.48C9376.43,4505.52 9376.43,4505.55 9376.43,4505.59ZM9376.42,4505.17L9376.42,4505.11C9376.42,4505.15 9376.42,4505.18 9376.42,4505.21L9376.42,4505.17ZM9376.41,4504.85C9376.41,4504.91 9376.41,4504.97 9376.42,4505.02C9376.41,4504.97 9376.41,4504.91 9376.41,4504.85ZM9419.81,4504.6C9419.81,4504.63 9419.81,4504.66 9419.81,4504.7L9419.81,4504.74C9419.81,4504.71 9419.81,4504.68 9419.81,4504.65L9419.81,4504.6ZM9419.8,4504.22C9419.81,4504.3 9419.81,4504.38 9419.81,4504.47C9419.81,4504.37 9419.81,4504.27 9419.8,4504.17L9419.8,4504.22ZM9419.69,4502.51C9419.71,4502.64 9419.72,4502.78 9419.73,4502.91C9419.72,4502.76 9419.7,4502.61 9419.69,4502.46L9419.69,4502.51ZM9419.6,4501.74C9419.59,4501.72 9419.59,4501.69 9419.59,4501.67L9419.59,4501.72L9419.6,4501.74ZM9419.5,4501.12L9419.51,4501.16C9419.52,4501.21 9419.52,4501.27 9419.53,4501.32C9419.52,4501.25 9419.51,4501.18 9419.5,4501.12ZM9419.44,4500.8L9419.43,4500.75C9419.45,4500.84 9419.47,4500.93 9419.48,4501.02L9419.49,4501.07C9419.48,4500.98 9419.46,4500.89 9419.44,4500.8ZM9419.39,4500.52C9419.4,4500.56 9419.41,4500.6 9419.41,4500.64C9419.4,4500.59 9419.39,4500.53 9419.38,4500.48L9419.39,4500.52ZM9419.34,4500.29C9419.35,4500.32 9419.35,4500.35 9419.36,4500.38L9419.37,4500.43C9419.36,4500.4 9419.36,4500.37 9419.35,4500.34L9419.34,4500.29ZM9419.04,4499.04L9419.05,4499.08C9419.14,4499.43 9419.23,4499.78 9419.31,4500.14C9419.23,4499.77 9419.14,4499.4 9419.04,4499.04ZM9407.57,4519.95C9407.56,4519.92 9407.55,4519.89 9407.53,4519.86L9407.55,4519.9C9407.56,4519.92 9407.56,4519.93 9407.57,4519.95ZM9419.58,4501.62L9419.59,4501.65L9419.58,4501.62ZM9419.58,4501.62C9419.57,4501.53 9419.55,4501.45 9419.54,4501.36C9419.55,4501.45 9419.57,4501.53 9419.58,4501.62Z" style="fill:white;fill-rule:nonzero;"/>
                        </g>
                        <g transform="matrix(1.82569,-0.251074,0.297189,2.1577,-16151.3,-4713.62)">
                            <path d="M9317.83,4497.19C9319.41,4486.23 9328.84,4477.8 9340.25,4477.8C9347.57,4477.8 9354.08,4481.27 9358.22,4486.65L9358.25,4486.7C9361.18,4490.51 9362.92,4495.27 9362.92,4500.45C9362.92,4502.58 9362.63,4504.65 9362.08,4506.6L9362.08,4506.6L9362.08,4506.6C9367.06,4507.47 9371.47,4509.97 9374.74,4513.53C9371.02,4517.19 9368.7,4522.3 9368.7,4527.94C9368.7,4531.77 9369.77,4535.35 9371.61,4538.4C9370.66,4538.5 9369.69,4538.56 9368.7,4538.56L9368.7,4538.56C9369.69,4538.56 9370.66,4538.5 9371.61,4538.4L9371.61,4538.4L9371.61,4538.4C9369.77,4535.35 9368.7,4531.77 9368.7,4527.94C9368.7,4522.3 9371.02,4517.19 9374.74,4513.53L9374.74,4513.53L9374.74,4513.53L9374.74,4513.53C9371.47,4509.97 9367.05,4507.47 9362.08,4506.6C9362.63,4504.65 9362.92,4502.58 9362.92,4500.45C9362.92,4495.25 9361.17,4490.47 9358.22,4486.65C9361.44,4485.29 9364.99,4484.54 9368.7,4484.54C9374.11,4484.54 9379.13,4486.13 9383.36,4488.87C9379.09,4492.85 9376.41,4498.52 9376.41,4504.79L9376.41,4504.76C9376.42,4498.49 9379.1,4492.84 9383.36,4488.87L9383.36,4488.87C9387.24,4485.29 9392.41,4483.1 9398.11,4483.1C9408.05,4483.1 9416.41,4489.76 9418.99,4498.86L9419.03,4498.85C9420.65,4498.34 9422.37,4498.05 9424.15,4498.05C9433.48,4498.05 9441.03,4505.6 9441.03,4514.92C9441.03,4523.38 9434.83,4530.38 9426.71,4531.61C9426.93,4530.59 9427.05,4529.53 9427.05,4528.43C9427.05,4522.04 9423.18,4516.57 9417.66,4514.23C9419.04,4511.39 9419.81,4508.2 9419.81,4504.83L9419.81,4504.79C9419.81,4508.18 9419.05,4511.38 9417.66,4514.23C9415.81,4513.43 9413.76,4513 9411.62,4513C9410.13,4513 9408.7,4513.2 9407.34,4513.6L9407.34,4513.6L9407.34,4513.61C9407.3,4514.04 9407.28,4514.47 9407.28,4514.92L9407.28,4514.92C9407.28,4514.47 9407.3,4514.04 9407.34,4513.6C9408.7,4513.2 9410.13,4513 9411.62,4513C9413.76,4513 9415.81,4513.43 9417.66,4514.23C9415.86,4517.96 9413.01,4521.1 9409.5,4523.27L9409.5,4523.27C9409.25,4523.43 9409.01,4523.57 9408.76,4523.7L9408.78,4523.69C9409.02,4523.56 9409.26,4523.42 9409.5,4523.27L9409.54,4523.24C9413.03,4521.07 9415.87,4517.94 9417.66,4514.23C9423.18,4516.57 9427.05,4522.04 9427.05,4528.43C9427.05,4529.53 9426.93,4530.59 9426.71,4531.61L9426.7,4531.65C9425.23,4538.62 9419.05,4543.85 9411.62,4543.85C9408.76,4543.85 9406.07,4543.07 9403.78,4541.71C9407.15,4538.11 9409.21,4533.26 9409.21,4527.94L9409.21,4528C9409.19,4533.28 9407.16,4538.09 9403.82,4541.67L9403.78,4541.71C9400.11,4545.69 9394.81,4548.19 9388.95,4548.19C9383.88,4548.19 9379.22,4546.31 9375.66,4543.2L9375.66,4543.2L9375.66,4543.2C9371.52,4548.31 9365.19,4551.56 9358.1,4551.56C9351.75,4551.56 9346.02,4548.96 9341.93,4544.76L9341.93,4544.76C9336.73,4550.43 9329.25,4553.98 9320.97,4553.98C9305.26,4553.98 9292.51,4541.25 9292.51,4525.54C9292.51,4510.87 9303.59,4498.82 9317.83,4497.26L9317.83,4497.19ZM9380.75,4528.97C9380.75,4531.54 9380.31,4534.01 9379.51,4536.3C9380.32,4533.99 9380.75,4531.5 9380.75,4528.91L9380.75,4528.97ZM9335.43,4528.91C9335.43,4530.45 9335.59,4531.96 9335.88,4533.41C9335.59,4531.96 9335.43,4530.45 9335.43,4528.91L9335.43,4528.91ZM9345.72,4522.45C9345.2,4522.58 9344.67,4522.69 9344.14,4522.78C9345.37,4525.48 9347.03,4527.94 9349.06,4530.07C9347.05,4527.96 9345.39,4525.52 9344.17,4522.84L9344.14,4522.78C9344.67,4522.69 9345.2,4522.58 9345.72,4522.45ZM9409.21,4527.67L9409.21,4527.73C9409.21,4527.71 9409.21,4527.69 9409.21,4527.67ZM9409.2,4527.5L9409.2,4527.53C9409.2,4527.55 9409.2,4527.57 9409.2,4527.59C9409.2,4527.56 9409.2,4527.53 9409.2,4527.5ZM9396.32,4526.41L9396.32,4526.41C9396.91,4526.46 9397.51,4526.49 9398.11,4526.49L9398.11,4526.49C9397.51,4526.49 9396.91,4526.47 9396.32,4526.41L9396.32,4526.41ZM9409.13,4526.2C9409.14,4526.25 9409.14,4526.3 9409.15,4526.35L9409.15,4526.38C9409.14,4526.32 9409.14,4526.26 9409.13,4526.2ZM9396.4,4525.85C9396.38,4525.99 9396.36,4526.14 9396.34,4526.28C9396.36,4526.14 9396.38,4525.99 9396.4,4525.85ZM9409.12,4526.08L9409.13,4526.15C9409.13,4526.13 9409.12,4526.1 9409.12,4526.08ZM9409.11,4525.91L9409.11,4525.98L9409.12,4526.02C9409.11,4525.98 9409.11,4525.95 9409.11,4525.91ZM9396.48,4525.42C9396.46,4525.53 9396.44,4525.65 9396.42,4525.78C9396.44,4525.66 9396.46,4525.54 9396.48,4525.42ZM9409.05,4525.42C9409.06,4525.5 9409.07,4525.59 9409.08,4525.68C9409.07,4525.59 9409.06,4525.5 9409.05,4525.42ZM9396.55,4525.1L9396.56,4525.07C9396.53,4525.17 9396.51,4525.28 9396.49,4525.38C9396.51,4525.29 9396.53,4525.19 9396.55,4525.1ZM9409.03,4525.31C9409.03,4525.29 9409.03,4525.27 9409.03,4525.25L9409.03,4525.31ZM9396.62,4524.81C9396.61,4524.83 9396.61,4524.85 9396.6,4524.87L9396.61,4524.84C9396.61,4524.82 9396.62,4524.8 9396.62,4524.78L9396.62,4524.81ZM9408.93,4524.6L9408.94,4524.63C9408.94,4524.65 9408.94,4524.67 9408.94,4524.69C9408.94,4524.66 9408.93,4524.63 9408.93,4524.6ZM9396.75,4524.31C9396.72,4524.4 9396.7,4524.48 9396.68,4524.57C9396.7,4524.48 9396.72,4524.4 9396.75,4524.31ZM9396.79,4524.16C9396.77,4524.2 9396.76,4524.24 9396.75,4524.29C9396.76,4524.26 9396.77,4524.22 9396.78,4524.19L9396.79,4524.16ZM9396.84,4523.98C9396.83,4524.03 9396.81,4524.08 9396.8,4524.14L9396.8,4524.11C9396.82,4524.07 9396.83,4524.02 9396.84,4523.98ZM9408.82,4523.99C9408.82,4524 9408.82,4524.02 9408.83,4524.03C9408.82,4524.01 9408.82,4523.98 9408.81,4523.96L9408.82,4523.99ZM9396.88,4523.86C9396.87,4523.89 9396.86,4523.91 9396.85,4523.94C9396.86,4523.92 9396.86,4523.9 9396.87,4523.89L9396.88,4523.86ZM9396.91,4523.77L9396.89,4523.83L9396.91,4523.77ZM9396.98,4523.55L9396.99,4523.53C9396.96,4523.6 9396.94,4523.67 9396.91,4523.75L9396.92,4523.72C9396.94,4523.66 9396.96,4523.61 9396.98,4523.55ZM9408.7,4523.43C9408.71,4523.48 9408.72,4523.53 9408.73,4523.58L9408.74,4523.62C9408.73,4523.57 9408.72,4523.52 9408.71,4523.47L9408.7,4523.43ZM9397.06,4523.31C9397.05,4523.34 9397.04,4523.37 9397.03,4523.4C9397.04,4523.37 9397.05,4523.34 9397.06,4523.31ZM9408.67,4523.31L9408.68,4523.35L9408.69,4523.39C9408.68,4523.36 9408.68,4523.34 9408.67,4523.31ZM9397.28,4522.71C9397.21,4522.9 9397.14,4523.08 9397.07,4523.27C9397.14,4523.09 9397.2,4522.92 9397.27,4522.74L9397.28,4522.71ZM9340.25,4523.12L9340.25,4523.12L9340.25,4523.12ZM9408.58,4522.92L9408.59,4522.96L9408.58,4522.92L9408.57,4522.89L9408.58,4522.92ZM9408.54,4522.77L9408.55,4522.81L9408.56,4522.85C9408.55,4522.82 9408.55,4522.8 9408.54,4522.77ZM9317.59,4500.45C9317.59,4511.61 9325.65,4520.9 9336.27,4522.78L9336.27,4522.78L9336.27,4522.78L9336.27,4522.78C9325.65,4520.9 9317.59,4511.61 9317.59,4500.45L9317.59,4500.45ZM9397.32,4522.63C9397.31,4522.65 9397.3,4522.67 9397.3,4522.69L9397.32,4522.63ZM9408.47,4522.51C9408.48,4522.53 9408.48,4522.56 9408.49,4522.58L9408.5,4522.62C9408.49,4522.58 9408.48,4522.55 9408.47,4522.51ZM9397.33,4522.61L9397.35,4522.55C9397.34,4522.57 9397.34,4522.59 9397.33,4522.61ZM9397.4,4522.44L9397.42,4522.39C9397.41,4522.41 9397.4,4522.42 9397.4,4522.44ZM9408.43,4522.37L9408.44,4522.4L9408.43,4522.37ZM9397.47,4522.26L9397.48,4522.24C9397.47,4522.28 9397.45,4522.32 9397.43,4522.37L9397.44,4522.34C9397.45,4522.32 9397.46,4522.29 9397.47,4522.26ZM9397.52,4522.16C9397.51,4522.18 9397.5,4522.19 9397.5,4522.21L9397.52,4522.16ZM9397.59,4521.99L9397.61,4521.95C9397.61,4521.96 9397.6,4521.98 9397.59,4521.99ZM9397.9,4521.36C9397.85,4521.46 9397.8,4521.57 9397.74,4521.68C9397.8,4521.57 9397.85,4521.46 9397.9,4521.36ZM9408.17,4521.52L9408.15,4521.48C9408.16,4521.5 9408.17,4521.53 9408.18,4521.55L9408.19,4521.59C9408.18,4521.57 9408.17,4521.54 9408.17,4521.52ZM9358.1,4506.24C9353.23,4506.24 9348.73,4507.77 9345.04,4510.38C9347.11,4513.63 9348.52,4517.35 9349.1,4521.33L9349.1,4521.33L9349.1,4521.33C9348.91,4521.41 9348.72,4521.49 9348.52,4521.57C9348.72,4521.49 9348.91,4521.41 9349.1,4521.33C9348.52,4517.35 9347.1,4513.63 9345.04,4510.38C9344.28,4510.91 9343.56,4511.5 9342.87,4512.12C9343.56,4511.5 9344.28,4510.91 9345.04,4510.38L9345.08,4510.35C9348.76,4507.76 9353.24,4506.24 9358.1,4506.24L9358.1,4506.24ZM9408.06,4521.22L9408.07,4521.25C9408.07,4521.23 9408.06,4521.2 9408.05,4521.18L9408.06,4521.22ZM9398.09,4521.02C9398.06,4521.06 9398.04,4521.1 9398.02,4521.14C9398.04,4521.1 9398.06,4521.06 9398.09,4521.02ZM9408.01,4521.07L9408.03,4521.13C9408.02,4521.11 9408.02,4521.09 9408.01,4521.07ZM9407.9,4520.77L9407.89,4520.74C9407.9,4520.77 9407.92,4520.81 9407.93,4520.85L9407.94,4520.89C9407.93,4520.85 9407.92,4520.81 9407.9,4520.77ZM9398.55,4520.22L9398.57,4520.19C9398.43,4520.41 9398.3,4520.63 9398.18,4520.85C9398.3,4520.64 9398.42,4520.43 9398.55,4520.22ZM9407.73,4520.34C9407.78,4520.45 9407.82,4520.57 9407.87,4520.69C9407.82,4520.56 9407.77,4520.43 9407.72,4520.3L9407.73,4520.34ZM9407.63,4520.09C9407.65,4520.14 9407.67,4520.19 9407.69,4520.24C9407.67,4520.19 9407.65,4520.14 9407.63,4520.09ZM9395.57,4508.8C9393.5,4508.08 9391.27,4507.69 9388.96,4507.69C9384.68,4507.69 9380.7,4509.02 9377.41,4511.32C9378.47,4514.69 9380.33,4517.7 9382.76,4520.13C9380.33,4517.7 9378.47,4514.69 9377.41,4511.32L9377.45,4511.29C9380.73,4509.01 9384.69,4507.69 9388.96,4507.69C9391.27,4507.69 9393.5,4508.08 9395.57,4508.8ZM9407.58,4519.97L9407.6,4520.03L9407.58,4519.97ZM9398.83,4519.79C9398.82,4519.81 9398.81,4519.83 9398.79,4519.85C9398.8,4519.84 9398.81,4519.83 9398.82,4519.81L9398.83,4519.79ZM9407.42,4519.61C9407.45,4519.67 9407.48,4519.73 9407.5,4519.79L9407.52,4519.83C9407.49,4519.76 9407.45,4519.69 9407.42,4519.61ZM9398.98,4519.58C9398.97,4519.6 9398.96,4519.61 9398.95,4519.63L9398.98,4519.58ZM9407.29,4519.34C9407.32,4519.39 9407.35,4519.45 9407.37,4519.51L9407.39,4519.54C9407.36,4519.47 9407.33,4519.4 9407.29,4519.34ZM9399.14,4519.35L9399.11,4519.39L9399.14,4519.35ZM9407.24,4519.23C9407.26,4519.26 9407.27,4519.29 9407.28,4519.32C9407.26,4519.28 9407.24,4519.23 9407.22,4519.19L9407.24,4519.23ZM9407.09,4518.91L9407.1,4518.94C9407.14,4519.01 9407.17,4519.08 9407.2,4519.14C9407.16,4519.07 9407.12,4518.99 9407.09,4518.91ZM9399.35,4519.08L9399.36,4519.05C9399.34,4519.08 9399.32,4519.11 9399.3,4519.14C9399.32,4519.11 9399.33,4519.1 9399.35,4519.08ZM9341.75,4513.21C9340.13,4514.89 9338.77,4516.82 9337.74,4518.94C9338.77,4516.82 9340.13,4514.89 9341.75,4513.21ZM9399.52,4518.85C9399.52,4518.86 9399.51,4518.87 9399.5,4518.88L9399.52,4518.85ZM9399.56,4518.81L9399.59,4518.76L9399.56,4518.81ZM9406.93,4518.6C9406.96,4518.65 9406.98,4518.71 9407.01,4518.76C9406.98,4518.7 9406.94,4518.63 9406.91,4518.56L9406.93,4518.6ZM9399.63,4518.72L9399.65,4518.69C9399.64,4518.7 9399.64,4518.71 9399.63,4518.72ZM9406.78,4518.32C9406.82,4518.39 9406.86,4518.47 9406.9,4518.54C9406.86,4518.47 9406.82,4518.39 9406.78,4518.32ZM9399.84,4518.46C9399.83,4518.48 9399.81,4518.5 9399.8,4518.52C9399.81,4518.5 9399.82,4518.49 9399.83,4518.48L9399.84,4518.46ZM9399.97,4518.31C9399.94,4518.35 9399.9,4518.39 9399.86,4518.44L9399.88,4518.41C9399.91,4518.38 9399.94,4518.34 9399.97,4518.31ZM9400.14,4518.12C9400.09,4518.18 9400.03,4518.24 9399.98,4518.3C9400.03,4518.24 9400.09,4518.18 9400.14,4518.12ZM9406.67,4518.11L9406.7,4518.17C9406.69,4518.15 9406.68,4518.13 9406.67,4518.11ZM9400.26,4517.99C9400.23,4518.02 9400.2,4518.06 9400.17,4518.09C9400.19,4518.06 9400.21,4518.04 9400.24,4518.01L9400.26,4517.99ZM9406.5,4517.81L9406.51,4517.84C9406.54,4517.89 9406.57,4517.93 9406.59,4517.98L9406.61,4518.01C9406.57,4517.95 9406.53,4517.88 9406.5,4517.81ZM9400.35,4517.89C9400.34,4517.9 9400.33,4517.91 9400.31,4517.93L9400.33,4517.91C9400.35,4517.89 9400.36,4517.88 9400.37,4517.87L9400.35,4517.89ZM9400.59,4517.64C9400.52,4517.71 9400.46,4517.77 9400.4,4517.84C9400.46,4517.77 9400.52,4517.71 9400.59,4517.64ZM9406.28,4517.44L9406.26,4517.41C9406.32,4517.52 9406.39,4517.63 9406.45,4517.74L9406.48,4517.78C9406.41,4517.66 9406.34,4517.55 9406.28,4517.44ZM9400.69,4517.54C9400.67,4517.55 9400.66,4517.57 9400.65,4517.58L9400.69,4517.54ZM9400.83,4517.4C9400.79,4517.44 9400.76,4517.47 9400.72,4517.51C9400.75,4517.48 9400.78,4517.45 9400.81,4517.42L9400.83,4517.4ZM9401.05,4517.19L9401.07,4517.17C9401.02,4517.21 9400.98,4517.26 9400.93,4517.3C9400.97,4517.26 9401.01,4517.22 9401.05,4517.19ZM9405.99,4516.98L9406.02,4517.03C9406.01,4517.02 9406,4517 9405.99,4516.98ZM9405.9,4516.85C9405.92,4516.87 9405.93,4516.9 9405.94,4516.92L9405.97,4516.95C9405.94,4516.91 9405.91,4516.86 9405.88,4516.82L9405.9,4516.85ZM9401.46,4516.82L9401.45,4516.83L9401.46,4516.82ZM9402.01,4516.35C9401.98,4516.38 9401.95,4516.4 9401.92,4516.43C9401.94,4516.41 9401.97,4516.39 9401.99,4516.37L9402.01,4516.35ZM9405.51,4516.28L9405.54,4516.32L9405.51,4516.28ZM9405.43,4516.16L9405.45,4516.19L9405.43,4516.16ZM9402.45,4516.01L9402.49,4515.99C9402.48,4516 9402.47,4516.01 9402.45,4516.01ZM9402.77,4515.78C9402.76,4515.79 9402.75,4515.8 9402.74,4515.81C9402.75,4515.8 9402.76,4515.79 9402.77,4515.78ZM9405.1,4515.72L9405.14,4515.77L9405.1,4515.72ZM9402.88,4515.71C9402.87,4515.72 9402.85,4515.73 9402.84,4515.74L9402.88,4515.71ZM9404.91,4515.47C9404.96,4515.54 9405.01,4515.6 9405.06,4515.67C9405.01,4515.6 9404.96,4515.54 9404.91,4515.47ZM9403.14,4515.53C9403.12,4515.54 9403.11,4515.55 9403.1,4515.56L9403.14,4515.53ZM9403.33,4515.41C9403.31,4515.43 9403.28,4515.44 9403.26,4515.46L9403.28,4515.44C9403.3,4515.43 9403.31,4515.42 9403.33,4515.41ZM9403.45,4515.33C9403.42,4515.35 9403.39,4515.37 9403.36,4515.39C9403.38,4515.38 9403.4,4515.36 9403.43,4515.35L9403.45,4515.33ZM9404.81,4515.34C9404.82,4515.35 9404.82,4515.36 9404.83,4515.37C9404.82,4515.36 9404.82,4515.35 9404.81,4515.34ZM9403.5,4515.3L9403.55,4515.27C9403.53,4515.28 9403.51,4515.29 9403.5,4515.3ZM9403.84,4515.1L9403.86,4515.08C9403.82,4515.11 9403.77,4515.14 9403.72,4515.17C9403.76,4515.14 9403.8,4515.12 9403.84,4515.1ZM9404.62,4515.11L9404.64,4515.14L9404.62,4515.11ZM9404.44,4514.89C9404.45,4514.91 9404.46,4514.92 9404.47,4514.94C9404.45,4514.91 9404.43,4514.89 9404.41,4514.86L9404.44,4514.89ZM9342.17,4506.56C9341.85,4508.18 9341.69,4509.84 9341.69,4511.55L9341.69,4511.51C9341.7,4509.82 9341.86,4508.17 9342.17,4506.56L9342.17,4506.56ZM9377.29,4510.93L9377.31,4510.98L9377.29,4510.93ZM9376.96,4509.65L9376.96,4509.67L9376.96,4509.65ZM9376.87,4509.25L9376.86,4509.2C9376.88,4509.28 9376.89,4509.35 9376.91,4509.43C9376.9,4509.37 9376.88,4509.31 9376.87,4509.25ZM9376.71,4508.37L9376.7,4508.34L9376.69,4508.29C9376.7,4508.32 9376.7,4508.34 9376.71,4508.37ZM9376.64,4507.93L9376.63,4507.88C9376.64,4507.95 9376.65,4508.01 9376.66,4508.08C9376.65,4508.03 9376.65,4507.98 9376.64,4507.93ZM9376.59,4507.57C9376.6,4507.65 9376.61,4507.72 9376.62,4507.8C9376.61,4507.74 9376.6,4507.68 9376.6,4507.62L9376.59,4507.57ZM9376.52,4506.95C9376.53,4507.05 9376.54,4507.15 9376.55,4507.25C9376.54,4507.15 9376.53,4507.05 9376.52,4506.95ZM9376.5,4506.74C9376.5,4506.76 9376.5,4506.78 9376.51,4506.8L9376.51,4506.85L9376.51,4506.88L9376.51,4506.85L9376.51,4506.8C9376.5,4506.78 9376.5,4506.76 9376.5,4506.74ZM9376.45,4506.06C9376.45,4506.15 9376.46,4506.23 9376.47,4506.32C9376.46,4506.23 9376.45,4506.15 9376.45,4506.06ZM9376.44,4505.89C9376.44,4505.93 9376.44,4505.97 9376.45,4506.01L9376.44,4505.96C9376.44,4505.94 9376.44,4505.91 9376.44,4505.89ZM9376.43,4505.59L9376.43,4505.54L9376.42,4505.48C9376.43,4505.52 9376.43,4505.55 9376.43,4505.59ZM9376.42,4505.17L9376.42,4505.11C9376.42,4505.15 9376.42,4505.18 9376.42,4505.21L9376.42,4505.17ZM9376.41,4504.85C9376.41,4504.91 9376.41,4504.97 9376.42,4505.02C9376.41,4504.97 9376.41,4504.91 9376.41,4504.85ZM9419.81,4504.6C9419.81,4504.63 9419.81,4504.66 9419.81,4504.7L9419.81,4504.74C9419.81,4504.71 9419.81,4504.68 9419.81,4504.65L9419.81,4504.6ZM9419.8,4504.22C9419.81,4504.3 9419.81,4504.38 9419.81,4504.47C9419.81,4504.37 9419.81,4504.27 9419.8,4504.17L9419.8,4504.22ZM9419.69,4502.51C9419.71,4502.64 9419.72,4502.78 9419.73,4502.91C9419.72,4502.76 9419.7,4502.61 9419.69,4502.46L9419.69,4502.51ZM9419.6,4501.74C9419.59,4501.72 9419.59,4501.69 9419.59,4501.67L9419.59,4501.72L9419.6,4501.74ZM9419.5,4501.12L9419.51,4501.16C9419.52,4501.21 9419.52,4501.27 9419.53,4501.32C9419.52,4501.25 9419.51,4501.18 9419.5,4501.12ZM9419.44,4500.8L9419.43,4500.75C9419.45,4500.84 9419.47,4500.93 9419.48,4501.02L9419.49,4501.07C9419.48,4500.98 9419.46,4500.89 9419.44,4500.8ZM9419.39,4500.52C9419.4,4500.56 9419.41,4500.6 9419.41,4500.64C9419.4,4500.59 9419.39,4500.53 9419.38,4500.48L9419.39,4500.52ZM9419.34,4500.29C9419.35,4500.32 9419.35,4500.35 9419.36,4500.38L9419.37,4500.43C9419.36,4500.4 9419.36,4500.37 9419.35,4500.34L9419.34,4500.29ZM9419.04,4499.04L9419.05,4499.08C9419.14,4499.43 9419.23,4499.78 9419.31,4500.14C9419.23,4499.77 9419.14,4499.4 9419.04,4499.04ZM9407.57,4519.95C9407.56,4519.92 9407.55,4519.89 9407.53,4519.86L9407.55,4519.9C9407.56,4519.92 9407.56,4519.93 9407.57,4519.95ZM9419.58,4501.62L9419.59,4501.65L9419.58,4501.62ZM9419.58,4501.62C9419.57,4501.53 9419.55,4501.45 9419.54,4501.36C9419.55,4501.45 9419.57,4501.53 9419.58,4501.62Z" style="fill:white;fill-rule:nonzero;"/>
                        </g>
                    </g>
                    <path d="M2408.03,2374.12C2507.11,2361.13 2567.73,2260.34 2588.27,2240C2642.7,2186.12 2803.74,2274.38 2847.51,2240C2891.27,2205.63 3111.68,2274.46 3156.31,2335.32C3200.94,2396.18 3396.94,2394.36 3422.52,2606.8C3448.11,2819.24 3553.99,2826.14 3546.68,3093.85C3539.38,3361.57 3389.95,3218.14 3298.21,3479.46C3241.24,3641.74 2999.32,3604.8 2967.95,3681.51C2933.51,3765.75 2718.78,3569.26 2588.27,3681.51C2550.29,3714.17 2460.07,3651.03 2408.03,3519.87C2350.32,3374.39 2302.91,3379.74 2256.26,3392.68C2195.85,3409.44 2012.69,3158.43 2104.85,3038.13C2148.16,2981.59 2100.16,2915.07 2104.85,2856.32C2110.95,2779.88 2161.61,2715.22 2161.43,2688.81C2160.59,2566.68 2289.02,2389.72 2408.03,2374.12Z" style="fill:none;stroke:rgb(153,203,203);stroke-width:29.8px;"/>
                </g>
                <g transform="matrix(0.949559,0.143604,-0.140379,0.928233,719.331,-54.2607)">
                    <path d="M2405.21,2351.6C2340.61,2360.72 2272.99,2412.72 2222.88,2480.21C2174.35,2545.58 2142.17,2624.66 2143.18,2688.94C2143.28,2695.36 2138.74,2704.44 2133.42,2716.09C2123.33,2738.2 2108.99,2766.58 2099.16,2798.64C2093.7,2816.45 2089.58,2835.34 2088.19,2854.93C2086.58,2877.56 2091.86,2901.23 2097.67,2925.06C2102.6,2945.26 2107.94,2965.58 2107.47,2985.45C2107.11,3000.25 2103.37,3014.77 2092.97,3028.6C2048.58,3087.48 2062.6,3174.72 2099.89,3250.8C2129.95,3312.15 2174.24,3365.89 2209.96,3390.25C2229.14,3403.33 2246.66,3408 2259.36,3404.39C2282.81,3397.72 2306.59,3392.47 2332.24,3414.14C2352.97,3431.64 2374.52,3464.88 2398.36,3523.88C2423.1,3585.22 2456,3631.91 2488.06,3661.43C2529.74,3699.83 2571.01,3708.6 2594.07,3688.57C2625.74,3661.08 2662.83,3653.07 2700.92,3654.78C2781.47,3658.39 2866.44,3703.92 2919.19,3710.22C2946.37,3713.47 2965.86,3706.88 2974.97,3684.51C2983.18,3664.36 3007.7,3653.58 3038.98,3643.76C3093.47,3626.67 3168.18,3614.57 3226.21,3578.43C3261,3556.76 3289.93,3526.64 3305.63,3482.18C3346.38,3367.37 3398.21,3332.85 3443.67,3305.66C3474.62,3287.15 3502.53,3271.49 3523.02,3239.07C3541.53,3209.78 3554.11,3166.57 3556.43,3094.13C3558.5,3030.03 3554.04,2980.63 3545.81,2939.71C3519.65,2809.59 3453.58,2767.1 3435.05,2605.22C3427.07,2534.88 3400.97,2486.78 3367.85,2451.71C3323.7,2404.96 3266.47,2381.83 3221.9,2360.77C3198.57,2349.76 3178.92,2339.92 3168.72,2325.79C3142.75,2289.82 3059.69,2249.65 2982.81,2228.43C2946.8,2218.5 2912.25,2212.66 2885.88,2212.71C2863.8,2212.75 2846.67,2217.53 2836.52,2225.37C2832.93,2228.14 2827.86,2228.89 2822.01,2229.3C2812.2,2229.99 2800.61,2228.71 2787.92,2226.62C2741.38,2218.93 2682.1,2200.37 2636.69,2201.98C2611.2,2202.89 2589.59,2210.08 2574.17,2225.1C2560.53,2238.37 2529,2287.56 2479.99,2321.53C2458.62,2336.34 2433.69,2348.11 2405.21,2351.6L2405.21,2351.6ZM2410.85,2396.64C2446.56,2391.65 2477.78,2376.69 2504.32,2357.62C2555.34,2320.96 2588.24,2269.13 2602.37,2254.91C2611.05,2246.17 2623.84,2243.28 2638.4,2242.51C2681.5,2240.24 2737.98,2257.64 2782.3,2264.18C2815.49,2269.08 2842.99,2267.02 2858.49,2254.64C2865.48,2249.06 2878.78,2248.44 2895.33,2249.04C2926.02,2250.14 2966.11,2258.62 3005.55,2271.17C3065.1,2290.12 3123.64,2317.63 3143.9,2344.84C3156.8,2362.16 3180.42,2375.47 3209.54,2388.7C3251.69,2407.83 3306.14,2428.09 3348.23,2471.39C3378.38,2502.39 3401.97,2545.39 3409.99,2608.38C3430.59,2771.26 3497.44,2813.35 3525.24,2944.16C3533.64,2983.69 3538.32,3031.49 3536.93,3093.57C3535.42,3161.09 3524.8,3201.64 3507.78,3229.09C3489.19,3259.06 3463.18,3273.11 3434.84,3290.34C3387.25,3319.26 3332.8,3355.75 3290.78,3476.73C3276.56,3517.51 3250.06,3545.14 3218.24,3565.08C3161.42,3600.68 3088.02,3612.33 3034.58,3629.07C2998.03,3640.52 2970.59,3654.99 2960.94,3678.51C2951.61,3701.2 2926.88,3697.91 2894.41,3688.97C2841.67,3674.43 2770.2,3641.15 2701.73,3637.51C2659.3,3635.25 2618.02,3644.15 2582.46,3674.44C2574.36,3681.35 2563.22,3682.17 2550.6,3678.55C2535.35,3674.18 2518.25,3663.38 2500.87,3647.03C2470.85,3618.78 2440.44,3574.12 2417.71,3515.85C2392.66,3451.55 2368.96,3415.69 2346.73,3396.42C2314,3368.04 2283.49,3372.77 2253.15,3380.97C2245.3,3383.09 2235.26,3377.91 2223.56,3369.69C2190.8,3346.66 2150.98,3295.91 2124,3238.68C2092.93,3172.75 2077.8,3097.66 2116.73,3047.65C2131.91,3028.19 2137.74,3007.61 2138.61,2986.52C2139.55,2963.85 2134.3,2940.49 2129.07,2917.34C2124.48,2897.02 2119.81,2876.9 2121.51,2857.71C2123,2840.88 2126.89,2824.7 2131.85,2809.46C2143.64,2773.26 2161.57,2742.21 2171.24,2720.02C2176.78,2707.31 2179.67,2696.6 2179.68,2688.68C2179.79,2631.68 2210.63,2562.54 2254.71,2505.43C2298.51,2448.69 2355.61,2403.32 2410.85,2396.64L2410.85,2396.64Z" style="fill:rgb(190,222,222);"/>
                </g>
            </g>
        </g>
    </g>
</svg>
